<?xml version="1.0" encoding="UTF-8" standalone="no"?>
<!-- Created with Inkscape (http://www.inkscape.org/) -->

<svg
   width="512"
   height="512"
   viewBox="0 0 512 512"
   version="1.1"
   id="svg1"
   xml:space="preserve"
   inkscape:version="1.4.4 (dcaf3e7d9e, 2026-05-05)"
   sodipodi:docname="git.svg"
   xmlns:inkscape="http://www.inkscape.org/namespaces/inkscape"
   xmlns:sodipodi="http://sodipodi.sourceforge.net/DTD/sodipodi-0.dtd"
   xmlns="http://www.w3.org/2000/svg"
   xmlns:svg="http://www.w3.org/2000/svg"><sodipodi:namedview
     id="namedview1"
     pagecolor="#505050"
     bordercolor="#eeeeee"
     borderopacity="1"
     inkscape:showpageshadow="0"
     inkscape:pageopacity="0"
     inkscape:pagecheckerboard="0"
     inkscape:deskcolor="#505050"
     inkscape:document-units="px"
     inkscape:zoom="2.7949219"
     inkscape:cx="38.999301"
     inkscape:cy="-31.843466"
     inkscape:window-width="1270"
     inkscape:window-height="2113"
     inkscape:window-x="1283"
     inkscape:window-y="6"
     inkscape:window-maximized="0"
     inkscape:current-layer="svg1"
     showguides="true"><sodipodi:guide
       position="173.56042,502.21276"
       orientation="0,-1"
       id="guide1"
       inkscape:locked="false" /><sodipodi:guide
       position="26.764382,377.72058"
       orientation="0,-1"
       id="guide2"
       inkscape:locked="false" /><sodipodi:guide
       position="25.303302,424.11795"
       orientation="0,-1"
       id="guide6"
       inkscape:locked="false" /><sodipodi:guide
       position="-3.8348538,414.65661"
       orientation="0,-1"
       id="guide7"
       inkscape:locked="false" /><sodipodi:guide
       position="221.8169,468.60334"
       orientation="0,-1"
       id="guide11"
       inkscape:locked="false" /></sodipodi:namedview><defs
     id="defs1" /><g
     id="g2"><path
       style="fill:#faf6f0;fill-opacity:1;stroke:#c8986a;stroke-width:4;stroke-opacity:1"
       d="m 77.997769,19.726388 -9.384241,2.23528 0.911615,-23.38317 -7.89993,-24.87242 -17.15765,-7.653049 -12.52878,12.775659 1.54295,29.13097 10.12178,20.18184 -18.762322,18.7006 -12.009,26.49905 -3.7648098,22.95915 7.1592998,22.465412 15.059235,12.96082 94.613934,-0.18516 18.4909,-12.57909 4.73207,-21.296572 -1.74827,-24.54834 -16.25468,-31.70647 -18.99413,-15.43392 10.04499,-21.04151 -0.61718,-27.95833 -14.19517,-14.56548 -17.095937,11.17099 -4.81402,25.79818995 2.862447,21.99470005 z"
       id="path4"
       sodipodi:nodetypes="cccccccccccccccccccccccccc" /><g
       id="g1"><path
         style="fill:#ffd8c6;fill-opacity:0;stroke:#c8986a;stroke-width:4;stroke-opacity:1"
         d="m 78.509994,94.862445 -7.5976,2.822057 -1.013157,2.532898 -1.646379,1.47752 -1.350875,5.74122 1.30866,2.61732 0.337719,2.44846 10.316062,4.70827 8.385119,-4.03283 0.675438,-2.65954 2.364032,-2.44846 -0.879395,-7.35172 -2.086467,-1.508913 -1.403913,-1.992294 z"
         id="path7"
         sodipodi:nodetypes="ccccccccccccccc" /><path
         style="fill:#c79369;fill-opacity:1;stroke:#c8986a;stroke-width:0;stroke-dasharray:none;stroke-opacity:1"
         d="m 73.844479,81.552909 0.2165,6.210766 -10.716701,-5.414514 -6.007846,-8.918024 -0.0541,-14.597955 5.791346,-9.555025 10.391954,-5.573765 12.340439,0.05308 8.443462,4.936763 6.116097,8.918024 0.0541,17.517546 -7.036212,8.281022 -8.768208,4.724429 -0.162377,-12.156115 5.6831,-3.131926 2.814485,-3.715842 v -6.847768 l -2.652108,-4.405929 0.378869,-4.936763 -4.925354,2.866508 -6.765592,-1.539421 -6.386724,1.698671 -5.0336,-2.972674 -0.2165,5.520681 -2.273238,3.662759 0.378877,7.272436 3.626354,4.405929 5.0336,2.017171 0.0541,2.388757 -3.518116,1.274003 -3.247485,-2.866508 -1.677861,-0.3185 0.108246,2.123338 3.842862,3.291176 z"
         id="path11" /></g></g><g
     inkscape:groupmode="layer"
     id="layer2"
     inkscape:label="Layer 2" /></svg>
