<?xml version="1.0" encoding="UTF-8" standalone="no"?>
<!-- Created with Inkscape (http://www.inkscape.org/) -->

<svg
   width="512"
   height="512"
   viewBox="0 0 512 512"
   version="1.1"
   id="svg1"
   xml:space="preserve"
   inkscape:version="1.4.4 (dcaf3e7d9e, 2026-05-05)"
   sodipodi:docname="about.svg"
   xmlns:inkscape="http://www.inkscape.org/namespaces/inkscape"
   xmlns:sodipodi="http://sodipodi.sourceforge.net/DTD/sodipodi-0.dtd"
   xmlns="http://www.w3.org/2000/svg"
   xmlns:svg="http://www.w3.org/2000/svg"><sodipodi:namedview
     id="namedview1"
     pagecolor="#505050"
     bordercolor="#eeeeee"
     borderopacity="1"
     inkscape:showpageshadow="0"
     inkscape:pageopacity="0"
     inkscape:pagecheckerboard="0"
     inkscape:deskcolor="#505050"
     inkscape:document-units="px"
     inkscape:zoom="30.121993"
     inkscape:cx="84.506359"
     inkscape:cy="79.476812"
     inkscape:window-width="1907"
     inkscape:window-height="2113"
     inkscape:window-x="1923"
     inkscape:window-y="6"
     inkscape:window-maximized="0"
     inkscape:current-layer="g19"
     showguides="true"><sodipodi:guide
       position="173.56042,502.21276"
       orientation="0,-1"
       id="guide1"
       inkscape:locked="false" /><sodipodi:guide
       position="26.764382,377.72058"
       orientation="0,-1"
       id="guide2"
       inkscape:locked="false" /><sodipodi:guide
       position="25.303302,424.11795"
       orientation="0,-1"
       id="guide6"
       inkscape:locked="false" /><sodipodi:guide
       position="-3.8348538,414.65661"
       orientation="0,-1"
       id="guide7"
       inkscape:locked="false" /><sodipodi:guide
       position="221.8169,468.60334"
       orientation="0,-1"
       id="guide11"
       inkscape:locked="false" /><sodipodi:guide
       position="163.94373,471.19002"
       orientation="1,0"
       id="guide12"
       inkscape:locked="false" /><sodipodi:guide
       position="208.6067,458.77365"
       orientation="1,0"
       id="guide13"
       inkscape:locked="false" /><sodipodi:guide
       position="185.11888,423.86961"
       orientation="0,-1"
       id="guide14"
       inkscape:locked="false" /></sodipodi:namedview><defs
     id="defs1" /><g
     inkscape:groupmode="layer"
     id="layer2"
     inkscape:label="Layer 2"><path
       style="fill:#faf6f0;fill-opacity:1;stroke:#c8986a;stroke-width:4;stroke-opacity:1"
       d="m 76.73042,19.668915 -9.384243,2.23528 0.911615,-23.3831698 -7.89993,-24.8724202 -17.15765,-7.65305 -12.52878,12.77566 1.54295,29.1309702 10.12178,20.1818398 -18.76232,18.7006 -12.009007,26.49905 -3.7648098,22.95915 7.1593098,22.465415 15.05923,12.96082 94.613935,-0.18516 18.4909,-12.57909 4.73207,-21.296575 -1.74827,-24.54834 -16.25468,-31.70647 -18.99413,-15.43392 10.04499,-21.0415098 -0.61718,-27.9583302 -14.19517,-14.56548 -17.09594,11.17099 -4.81402,25.79819018 2.86245,21.99469982 z"
       id="path4-3"
       sodipodi:nodetypes="cccccccccccccccccccccccccc" /><g
       id="g17"><g
         id="g19"><path
           style="display:inline;fill:#c79369;fill-opacity:0;stroke:#c8986a;stroke-width:3.77276;stroke-dasharray:none;stroke-opacity:1"
           d="M 78.383984,85.732606 63.417339,79.546748 57.291753,65.370822 63.922544,49.197379 78.510281,43.65588 93.918974,51.194896 99.034158,64.210973 93.224323,79.35344 Z"
           id="path14"
           sodipodi:nodetypes="ccccccccc" /><path
           style="fill:#c8986c;fill-opacity:1;stroke:#c8986a;stroke-width:4"
           d="m 78.215275,50.959443 3.452627,1.261536 1.726313,4.083396 -1.659917,3.419428 -3.552222,1.9919 5.876106,5.743312 -1.527124,9.826707 -4.18299,2.855056 -4.249386,-2.888255 -1.327934,-9.76031 5.278535,-5.876105 -3.18704,-1.560322 -1.79271,-3.817808 1.460727,-3.9838 z"
           id="path1"
           sodipodi:nodetypes="ccccccccccccccc" /></g><path
         style="display:inline;fill:#ffd8c6;fill-opacity:0;stroke:#c8986a;stroke-width:4;stroke-opacity:1"
         d="m 78.509992,94.862445 -7.5976,2.822057 -1.013157,2.532898 -1.646379,1.47752 -1.350875,5.74122 1.30866,2.61732 0.337719,2.44846 10.316062,4.70827 8.385119,-4.03283 0.675438,-2.65954 2.364032,-2.44846 -0.879395,-7.35172 -2.086467,-1.508913 -1.403913,-1.992294 z"
         id="path7"
         sodipodi:nodetypes="ccccccccccccccc" /></g></g></svg>
