<?xml version="1.0" encoding="UTF-8" standalone="no"?>
<!-- Created with Inkscape (http://www.inkscape.org/) -->

<svg
   width="512"
   height="512"
   viewBox="0 0 512 512"
   version="1.1"
   id="svg1"
   xml:space="preserve"
   inkscape:version="1.4.4 (dcaf3e7d9e, 2026-05-05)"
   sodipodi:docname="about.svg"
   xmlns:inkscape="http://www.inkscape.org/namespaces/inkscape"
   xmlns:sodipodi="http://sodipodi.sourceforge.net/DTD/sodipodi-0.dtd"
   xmlns="http://www.w3.org/2000/svg"
   xmlns:svg="http://www.w3.org/2000/svg"><sodipodi:namedview
     id="namedview1"
     pagecolor="#505050"
     bordercolor="#eeeeee"
     borderopacity="1"
     inkscape:showpageshadow="0"
     inkscape:pageopacity="0"
     inkscape:pagecheckerboard="0"
     inkscape:deskcolor="#505050"
     inkscape:document-units="px"
     inkscape:zoom="4.2059636"
     inkscape:cx="88.564723"
     inkscape:cy="141.4658"
     inkscape:window-width="1907"
     inkscape:window-height="2113"
     inkscape:window-x="6"
     inkscape:window-y="6"
     inkscape:window-maximized="0"
     inkscape:current-layer="layer2"
     showguides="true"><sodipodi:guide
       position="173.56042,502.21276"
       orientation="0,-1"
       id="guide1"
       inkscape:locked="false" /><sodipodi:guide
       position="26.764382,377.72058"
       orientation="0,-1"
       id="guide2"
       inkscape:locked="false" /><sodipodi:guide
       position="25.303302,424.11795"
       orientation="0,-1"
       id="guide6"
       inkscape:locked="false" /><sodipodi:guide
       position="-3.8348538,414.65661"
       orientation="0,-1"
       id="guide7"
       inkscape:locked="false" /><sodipodi:guide
       position="221.8169,468.60334"
       orientation="0,-1"
       id="guide11"
       inkscape:locked="false" /><sodipodi:guide
       position="163.94373,471.19002"
       orientation="1,0"
       id="guide12"
       inkscape:locked="false" /><sodipodi:guide
       position="208.6067,458.77365"
       orientation="1,0"
       id="guide13"
       inkscape:locked="false" /><sodipodi:guide
       position="185.11888,423.86961"
       orientation="0,-1"
       id="guide14"
       inkscape:locked="false" /></sodipodi:namedview><defs
     id="defs1" /><g
     inkscape:groupmode="layer"
     id="layer2"
     inkscape:label="Layer 2"><g
       id="g18"><path
         style="display:inline;fill:#ffd1ae;fill-opacity:1;stroke:#c8986a;stroke-width:4;stroke-opacity:1"
         d="m 74.419498,17.813382 -8.39367,1.419517 -0.3703,-20.12011886 -7.89993,-24.87241714 -17.15765,-7.653052 -12.52878,12.775659 1.54295,29.1309698 10.12178,20.1818372 -18.76232,18.700602 -12.0090063,26.499048 1.2343593,14.195177 -4.9991693,8.763978 7.1593093,22.465408 15.05923,12.96082 94.613939,-0.18516 18.4909,-12.57909 4.73207,-21.296572 -5.04654,-10.349634 3.29827,-14.198701 L 127.25026,41.945181 109.0434,24.849252 118.30112,5.46975 117.68394,-22.488575 103.48877,-37.05406 86.392828,-25.883074 81.578808,-0.08488386 82.751458,19.171181 Z"
         id="path4"
         sodipodi:nodetypes="cccccccccccccccccccccccccccc" /><g
         id="g17"><g
           id="g19"><path
             style="display:inline;fill:#c79369;fill-opacity:0;stroke:#c8986a;stroke-width:3.77276;stroke-dasharray:none;stroke-opacity:1"
             d="M 78.383984,85.732606 63.417339,79.546748 57.291753,65.370822 63.922544,49.197379 78.510281,43.65588 93.918974,51.194896 99.034158,64.210973 93.224323,79.35344 Z"
             id="path14"
             sodipodi:nodetypes="ccccccccc" /><path
             style="display:inline;fill:#c79369;fill-opacity:1;stroke:#c8986a;stroke-width:3.77276;stroke-dasharray:none;stroke-opacity:1"
             d="m 78.26442,64.718914 -2.019179,1.158912 v 8.670378 l 1.85092,1.716907 2.229511,-1.759829 v -8.284075 z"
             id="path15" /><path
             style="display:inline;fill:#c79369;fill-opacity:1;stroke:#c8986a;stroke-width:3.77276;stroke-dasharray:none;stroke-opacity:1"
             d="m 78.096161,52.829335 -2.229511,0.944299 -0.92546,2.274901 1.261986,2.489515 1.93505,0.729685 2.145382,-0.901376 1.051654,-2.274901 -1.00959,-2.446592 z"
             id="path16" /></g><path
           style="display:inline;fill:#ffd8c6;fill-opacity:1;stroke:#b88c74;stroke-width:4;stroke-opacity:1"
           d="m 78.509992,94.862445 -7.5976,2.822057 -1.013157,2.532898 -1.646379,1.47752 -1.350875,5.74122 1.30866,2.61732 0.337719,2.44846 10.316062,4.70827 8.385119,-4.03283 0.675438,-2.65954 2.364032,-2.44846 -0.879395,-7.35172 -2.086467,-1.508913 -1.403913,-1.992294 z"
           id="path7"
           sodipodi:nodetypes="ccccccccccccccc" /></g></g></g></svg>
