<?xml version="1.0" encoding="UTF-8" standalone="no"?>
<!-- Created with Inkscape (http://www.inkscape.org/) -->

<svg
   width="512"
   height="512"
   viewBox="0 0 512 512"
   version="1.1"
   id="svg1"
   xml:space="preserve"
   inkscape:version="1.4.4 (dcaf3e7d9e, 2026-05-05)"
   sodipodi:docname="clouds_foreground.svg"
   xmlns:inkscape="http://www.inkscape.org/namespaces/inkscape"
   xmlns:sodipodi="http://sodipodi.sourceforge.net/DTD/sodipodi-0.dtd"
   xmlns="http://www.w3.org/2000/svg"
   xmlns:svg="http://www.w3.org/2000/svg"><sodipodi:namedview
     id="namedview1"
     pagecolor="#505050"
     bordercolor="#eeeeee"
     borderopacity="1"
     inkscape:showpageshadow="0"
     inkscape:pageopacity="0"
     inkscape:pagecheckerboard="0"
     inkscape:deskcolor="#505050"
     inkscape:document-units="px"
     inkscape:zoom="1.7658357"
     inkscape:cx="932.13653"
     inkscape:cy="-31.146725"
     inkscape:window-width="3840"
     inkscape:window-height="2129"
     inkscape:window-x="0"
     inkscape:window-y="0"
     inkscape:window-maximized="1"
     inkscape:current-layer="g17"
     showguides="true"><sodipodi:guide
       position="173.56042,502.21276"
       orientation="0,-1"
       id="guide1"
       inkscape:locked="false" /><sodipodi:guide
       position="26.764382,377.72058"
       orientation="0,-1"
       id="guide2"
       inkscape:locked="false" /><sodipodi:guide
       position="25.303302,424.11795"
       orientation="0,-1"
       id="guide6"
       inkscape:locked="false" /><sodipodi:guide
       position="-3.8348538,414.65661"
       orientation="0,-1"
       id="guide7"
       inkscape:locked="false" /><sodipodi:guide
       position="221.8169,468.60334"
       orientation="0,-1"
       id="guide11"
       inkscape:locked="false" /><sodipodi:guide
       position="163.94373,471.19002"
       orientation="1,0"
       id="guide12"
       inkscape:locked="false" /><sodipodi:guide
       position="208.6067,458.77365"
       orientation="1,0"
       id="guide13"
       inkscape:locked="false" /><sodipodi:guide
       position="185.11888,423.86961"
       orientation="0,-1"
       id="guide14"
       inkscape:locked="false" /></sodipodi:namedview><defs
     id="defs1" /><g
     inkscape:groupmode="layer"
     id="layer2"
     inkscape:label="Layer 2"><g
       id="g17"><path
         style="fill:#c8986c;stroke:#c8986a;stroke-width:4"
         d="m 1124.8374,157.47058 -655.57322,-2.38568 -25.49321,-8.50522 -8.61611,-12.24014 -21.47596,3.44209 -10.33959,-12.33746 -21.82792,7.86184 -6.15157,-19.05371 -37.85153,-21.483312 -41.9436,6.8201 -18.07325,15.686222 -35.74408,-29.551961 -40.97461,-8.412346 -42.394,19.889038 -24.89335,29.305549 -45.502433,-14.11224 -39.460479,29.17624 -44.8579275,-28.11678 -0.341,31.14891 0.341,15.00421 17.0502495,0.34101 1542.12569,5.46978 20.4603,-0.34101 1.023,-21.82431 -29.8272,7.83512 -17.947,-21.63766 -29.0191,-3.65091 -27.8604,11.45703 -15.3994,-23.77484 -37.7267,-11.00095 -39.7187,16.78304 -41.2452,-24.095198 -37.2283,9.053968 -25.4763,31.5283 -21.0496,-1.52393 -12.7949,11.29298 -18.7553,-14.32221 -23.1883,-4.77406 -19.4373,10.91215 -14.863,11.44441 -22.7027,-6.83372 z"
         id="path2"
         sodipodi:nodetypes="cccccccccccccccccccccccccccccccccccccccccc" /></g></g></svg>
