<?xml version="1.0" encoding="UTF-8" standalone="no"?>
<!-- Created with Inkscape (http://www.inkscape.org/) -->

<svg
   width="512"
   height="512"
   viewBox="0 0 512 512"
   version="1.1"
   id="svg1"
   xml:space="preserve"
   inkscape:version="1.4.4 (dcaf3e7d9e, 2026-05-05)"
   sodipodi:docname="git.svg"
   xmlns:inkscape="http://www.inkscape.org/namespaces/inkscape"
   xmlns:sodipodi="http://sodipodi.sourceforge.net/DTD/sodipodi-0.dtd"
   xmlns="http://www.w3.org/2000/svg"
   xmlns:svg="http://www.w3.org/2000/svg"><sodipodi:namedview
     id="namedview1"
     pagecolor="#505050"
     bordercolor="#eeeeee"
     borderopacity="1"
     inkscape:showpageshadow="0"
     inkscape:pageopacity="0"
     inkscape:pagecheckerboard="0"
     inkscape:deskcolor="#505050"
     inkscape:document-units="px"
     inkscape:zoom="2.7949219"
     inkscape:cx="38.820405"
     inkscape:cy="-31.843466"
     inkscape:window-width="1907"
     inkscape:window-height="2113"
     inkscape:window-x="6"
     inkscape:window-y="6"
     inkscape:window-maximized="0"
     inkscape:current-layer="g7"
     showguides="true"><sodipodi:guide
       position="173.56042,502.21276"
       orientation="0,-1"
       id="guide1"
       inkscape:locked="false" /><sodipodi:guide
       position="26.764382,377.72058"
       orientation="0,-1"
       id="guide2"
       inkscape:locked="false" /><sodipodi:guide
       position="25.303302,424.11795"
       orientation="0,-1"
       id="guide6"
       inkscape:locked="false" /><sodipodi:guide
       position="-3.8348538,414.65661"
       orientation="0,-1"
       id="guide7"
       inkscape:locked="false" /><sodipodi:guide
       position="221.8169,468.60334"
       orientation="0,-1"
       id="guide11"
       inkscape:locked="false" /></sodipodi:namedview><defs
     id="defs1" /><g
     inkscape:groupmode="layer"
     id="layer2"
     inkscape:label="Layer 2"><path
       style="fill:#ffd1ae;fill-opacity:1;stroke:#c8986a;stroke-width:4;stroke-opacity:1"
       d="m 74.419502,17.813382 -8.39367,1.419517 -0.3703,-20.12011886 -7.89993,-24.87241714 -17.15765,-7.653052 -12.52878,12.775659 1.54295,29.1309698 10.12178,20.1818372 -18.76232,18.700602 -12.0090068,26.499048 1.2343598,14.195177 -4.9991698,8.763978 7.1593098,22.465408 15.05923,12.96082 94.613935,-0.18516 18.4909,-12.57909 4.73207,-21.296572 -5.04654,-10.349634 3.29827,-14.198701 L 127.25026,41.945181 109.0434,24.849252 118.30112,5.46975 117.68394,-22.488575 103.48877,-37.05406 86.392832,-25.883074 81.578812,-0.08488386 82.751462,19.171181 Z"
       id="path4"
       sodipodi:nodetypes="cccccccccccccccccccccccccccc" /><g
       id="g7"
       transform="translate(2.0755369,9.5541781)"><path
         style="fill:#ffd8c6;fill-opacity:1;stroke:#b88c74;stroke-width:4;stroke-opacity:1"
         d="m 76.434457,85.308267 -7.5976,2.822057 -1.013157,2.532895 -1.646379,1.47752 -1.350875,5.74122 1.30866,2.617321 0.337719,2.44846 10.316062,4.70827 8.385119,-4.03283 0.675438,-2.65954 2.364032,-2.448461 -0.879395,-7.35172 -2.086467,-1.50891 -1.403913,-1.992294 z"
         id="path7"
         sodipodi:nodetypes="ccccccccccccccc" /><path
         style="fill:#c79369;fill-opacity:1;stroke:#c8986a;stroke-width:0;stroke-dasharray:none;stroke-opacity:1"
         d="m 71.768942,71.998731 0.2165,6.210766 -10.716701,-5.414514 -6.007846,-8.918024 -0.0541,-14.597955 5.791346,-9.555025 10.391954,-5.573765 12.340439,0.05308 8.443462,4.936763 6.116098,8.918024 0.0541,17.517546 -7.036213,8.281022 -8.768208,4.724429 -0.162377,-12.156115 5.6831,-3.131926 2.814485,-3.715842 v -6.847768 l -2.652108,-4.405929 0.378869,-4.936763 -4.925354,2.866508 -6.765592,-1.539421 -6.386724,1.698671 -5.0336,-2.972674 -0.2165,5.520681 -2.273238,3.662759 0.378877,7.272436 3.626354,4.405929 5.0336,2.017171 0.0541,2.388757 -3.518116,1.274003 -3.247485,-2.866508 -1.677861,-0.3185 0.108246,2.123338 3.842862,3.291176 z"
         id="path11" /></g></g></svg>
