<?xml version="1.0" encoding="UTF-8" standalone="no"?>
<!-- Created with Inkscape (http://www.inkscape.org/) -->

<svg
   width="512"
   height="512"
   viewBox="0 0 512 512"
   version="1.1"
   id="svg1"
   xml:space="preserve"
   inkscape:version="1.4.4 (dcaf3e7d9e, 2026-05-05)"
   sodipodi:docname="logo.svg"
   xmlns:inkscape="http://www.inkscape.org/namespaces/inkscape"
   xmlns:sodipodi="http://sodipodi.sourceforge.net/DTD/sodipodi-0.dtd"
   xmlns="http://www.w3.org/2000/svg"
   xmlns:svg="http://www.w3.org/2000/svg"><sodipodi:namedview
     id="namedview1"
     pagecolor="#505050"
     bordercolor="#eeeeee"
     borderopacity="1"
     inkscape:showpageshadow="0"
     inkscape:pageopacity="0"
     inkscape:pagecheckerboard="0"
     inkscape:deskcolor="#505050"
     inkscape:document-units="px"
     inkscape:zoom="3.9583628"
     inkscape:cx="265.00855"
     inkscape:cy="167.74612"
     inkscape:window-width="1270"
     inkscape:window-height="2113"
     inkscape:window-x="1283"
     inkscape:window-y="6"
     inkscape:window-maximized="0"
     inkscape:current-layer="layer2"
     showguides="true"><sodipodi:guide
       position="173.56042,502.21276"
       orientation="0,-1"
       id="guide1"
       inkscape:locked="false" /><sodipodi:guide
       position="221.8169,468.60334"
       orientation="0,-1"
       id="guide11"
       inkscape:locked="false" /><sodipodi:guide
       position="163.94373,471.19002"
       orientation="1,0"
       id="guide12"
       inkscape:locked="false" /><sodipodi:guide
       position="208.6067,458.77365"
       orientation="1,0"
       id="guide13"
       inkscape:locked="false" /></sodipodi:namedview><defs
     id="defs1" /><g
     inkscape:groupmode="layer"
     id="layer2"
     inkscape:label="Layer 2"><g
       id="g17"
       transform="matrix(0.65989245,0,0,0.65989245,99.765817,0.78642463)"><g
         id="g7"
         transform="matrix(2.1013363,0,0,2.1013363,-54.662419,-34.774221)"><path
           style="fill:#c8986c;fill-opacity:0;stroke:#c8986a;stroke-width:4"
           d="m 135.92821,87.496536 c -6.20295,0.13914 -16.36686,2.69732 -16.36686,2.69732 0,0 0.97615,-12.68999 -4.29507,-26.55135 -5.27123,-13.86137 -14.44706,-25.37998 -21.084899,-28.30844 -6.63784,-2.92845 -12.88522,-0.58569 -12.88522,-0.58569 0,0 -8.98061,2.34277 -11.12814,16.98506 -2.14754,14.64229 8.78537,45.09826 8.78537,45.09826 l 0.78093,2.34277 c 0,0 -13.66614,10.542454 -20.30398,25.184744 -6.63784,14.64229 -7.614,39.04611 -0.58569,50.36948 7.0283,11.32338 22.45151,31.43212 72.820989,31.23689 50.36949,-0.19523 68.91639,-11.90906 80.435,-28.69889 11.5186,-16.78983 7.0283,-44.31734 -2.73323,-58.95963 -9.76153,-14.64229 -15.22799,-17.37552 -15.22799,-17.37552 l -2.14753,-1.757074 c 0,0 7.44126,-17.95639 10.43256,-29.964645 2.52515,-10.136934 2.25742,-16.109775 -2.62334,-25.480835 -4.88076,-9.37107 -14.64229,-10.15199 -14.64229,-10.15199 0,0 -8.59015,-0.78092 -18.15644,10.54245 -9.5663,11.32337 -14.6423,40.80319 -14.6423,40.80319 l -0.19523,4.29507 c 0,0 -10.45938,-1.85076 -16.23664,-1.72117 z"
           id="path1"
           sodipodi:nodetypes="scsscsccsssssccsscsccs" /><g
           id="g6"
           transform="matrix(0.93253106,0,0,0.92005069,-66.164849,-110.42145)"><ellipse
             style="fill:#c8986c;fill-opacity:1;stroke:#c8986a;stroke-width:1;stroke-dasharray:none"
             id="path3"
             cx="188.24345"
             cy="274.52625"
             rx="5.6953964"
             ry="6.6607175" /><ellipse
             style="fill:#c8986c;fill-opacity:1;stroke:#c8986a;stroke-width:1;stroke-dasharray:none"
             id="path3-9"
             cx="244.40672"
             cy="274.61508"
             rx="5.6953964"
             ry="6.6607175" /><g
             id="g5"
             transform="matrix(1.6572865,0,0,1.8075253,-81.361882,-401.25143)"><path
               style="fill:#c8986c;fill-opacity:1;stroke:#c8986a;stroke-width:0;stroke-dasharray:none"
               d="m 179.93072,377.67406 c 0,0 -1.8683,-0.0637 -3.35446,-0.57323 -1.48615,-0.50954 -2.22923,0.38215 -0.70061,1.8683 1.52861,1.48616 2.59015,2.90862 4.14,2.88739 1.54984,-0.0212 3.48184,-2.46277 3.48184,-2.46277 0,0 2.73864,-3.19149 -0.62984,-2.29487 -1.75638,0.46751 -2.91796,0.59263 -2.93693,0.57518 z"
               id="path4"
               sodipodi:nodetypes="cssscsc" /><path
               style="fill:#c8986c;fill-opacity:1;stroke:#c8986a;stroke-width:0;stroke-dasharray:none"
               d="m 179.82632,380.63184 c 0.0693,-2.38348 -0.98885,-0.14176 -0.98885,-0.14176 l 2.68299,0.0373 1.40511,0.92001 c 0,0 1.96261,1.65347 1.16608,2.47099 -1.16854,1.19932 -2.13818,-2.23972 -4.22324,-1.98291 z"
               id="path5"
               sodipodi:nodetypes="ccccscc" /><path
               style="fill:#c8986c;fill-opacity:1;stroke:#c8986a;stroke-width:0;stroke-dasharray:none"
               d="m 180.01173,380.63526 c -0.0642,-2.38348 0.91675,-0.14176 0.91675,-0.14176 l -2.48738,0.0373 -1.30266,0.92001 c 0,0 -1.81952,1.65347 -1.08107,2.47099 1.08334,1.19932 1.98229,-2.23972 3.91534,-1.98291 z"
               id="path5-2"
               sodipodi:nodetypes="ccccscc" /></g></g><text
           xml:space="preserve"
           style="font-size:22.7392px;writing-mode:lr-tb;direction:ltr;fill:#c8986c;fill-opacity:1;stroke:#c8986a;stroke-width:2.84239;stroke-linecap:round;stroke-linejoin:round;stroke-dasharray:none;paint-order:normal"
           x="43.610828"
           y="261.83499"
           id="text5"
           transform="scale(1.1193143,0.89340412)"><tspan
             sodipodi:role="line"
             id="tspan5"
             x="43.610828"
             y="261.83499"
             style="font-style:normal;font-variant:normal;font-weight:normal;font-stretch:normal;font-family:'JetBrains Mono';-inkscape-font-specification:'JetBrains Mono';stroke-width:2.84239;stroke-linecap:round;stroke-linejoin:round;stroke-dasharray:none;paint-order:normal">chubby bunny</tspan></text></g></g><text
       xml:space="preserve"
       style="font-style:normal;font-variant:normal;font-weight:normal;font-stretch:normal;font-family:'JetBrains Mono';-inkscape-font-specification:'JetBrains Mono';writing-mode:lr-tb;direction:ltr;fill:#c8986a;fill-opacity:1;stroke:#c8986a;stroke-width:1;stroke-linecap:round;stroke-linejoin:round;stroke-dasharray:none;paint-order:normal"
       x="293.52957"
       y="362.49393"
       id="text7"><tspan
         sodipodi:role="line"
         id="tspan7"
         x="293.52957"
         y="362.49393">   soft things fall.</tspan><tspan
         sodipodi:role="line"
         x="293.52957"
         y="377.49393"
         id="tspan8">good things pile up.</tspan></text></g></svg>
