<?xml version="1.0" encoding="UTF-8" standalone="no"?>
<!-- Created with Inkscape (http://www.inkscape.org/) -->

<svg
   width="512"
   height="512"
   viewBox="0 0 512 512"
   version="1.1"
   id="svg1"
   xml:space="preserve"
   inkscape:version="1.4.4 (dcaf3e7d9e, 2026-05-05)"
   sodipodi:docname="logo_inv.svg"
   xmlns:inkscape="http://www.inkscape.org/namespaces/inkscape"
   xmlns:sodipodi="http://sodipodi.sourceforge.net/DTD/sodipodi-0.dtd"
   xmlns="http://www.w3.org/2000/svg"
   xmlns:svg="http://www.w3.org/2000/svg"><sodipodi:namedview
     id="namedview1"
     pagecolor="#505050"
     bordercolor="#eeeeee"
     borderopacity="1"
     inkscape:showpageshadow="0"
     inkscape:pageopacity="0"
     inkscape:pagecheckerboard="0"
     inkscape:deskcolor="#505050"
     inkscape:document-units="px"
     inkscape:zoom="0.8712223"
     inkscape:cx="-297.85739"
     inkscape:cy="564.72383"
     inkscape:window-width="1907"
     inkscape:window-height="2113"
     inkscape:window-x="6"
     inkscape:window-y="6"
     inkscape:window-maximized="0"
     inkscape:current-layer="layer2"
     showguides="true"><sodipodi:guide
       position="173.56042,502.21276"
       orientation="0,-1"
       id="guide1"
       inkscape:locked="false" /><sodipodi:guide
       position="221.8169,468.60334"
       orientation="0,-1"
       id="guide11"
       inkscape:locked="false" /><sodipodi:guide
       position="163.94373,471.19002"
       orientation="1,0"
       id="guide12"
       inkscape:locked="false" /><sodipodi:guide
       position="208.6067,458.77365"
       orientation="1,0"
       id="guide13"
       inkscape:locked="false" /><sodipodi:guide
       position="248.82114,346.46739"
       orientation="1,0"
       id="guide7"
       inkscape:locked="false" /></sodipodi:namedview><defs
     id="defs1" /><g
     inkscape:groupmode="layer"
     id="layer2"
     inkscape:label="Layer 2"><path
       style="fill:#c8986c;fill-opacity:1;stroke:#c8986a;stroke-width:5.68294"
       d="m 249.43202,90.041366 c -8.81275,0.197681 -23.25299,3.832182 -23.25299,3.832182 0,0 1.38686,-18.029129 -6.10216,-37.722464 -7.48903,-19.693347 -20.52546,-36.058252 -29.95607,-40.21882 -9.43063,-4.160556 -18.3065,-0.832112 -18.3065,-0.832112 0,0 -12.75908,3.328458 -15.81015,24.131288 -3.05109,20.802832 12.48169,64.07272 12.48169,64.07272 l 1.1095,3.32846 c 0,0 -19.41598,14.97805 -28.8466,35.78088 -9.43062,20.80283 -10.81749,55.47421 -0.83211,71.56173 9.98536,16.08754 31.89767,44.65675 103.4594,44.37938 71.56176,-0.27737 97.912,-16.91963 114.27691,-40.77355 16.36489,-23.85391 9.98536,-62.96324 -3.8832,-83.76607 -13.86856,-20.80283 -21.63495,-24.68603 -21.63495,-24.68603 l -3.05108,-2.49634 c 0,0 11.09485,-28.569226 13.03644,-46.043613 1.9416,-17.474369 4.99268,-19.415975 -1.94159,-32.729778 -6.93428,-13.313817 -20.80284,-14.423298 -20.80284,-14.423298 0,0 -12.20433,-1.109482 -25.7955,14.978038 -13.59119,16.087521 -20.80285,57.970564 -20.80285,57.970564 L 272.5,92.486696 c 0,0 -14.86002,-2.629442 -23.06798,-2.44533 z"
       id="path1"
       sodipodi:nodetypes="scsscsccsssssccsscsccs" /><ellipse
       style="fill:#faf5f0;fill-opacity:1;stroke:#c8986a;stroke-width:1.31598;stroke-dasharray:none"
       id="path3"
       cx="211.71121"
       cy="167.69891"
       rx="7.5457196"
       ry="8.7065516" /><ellipse
       style="fill:#faf5f0;fill-opacity:1;stroke:#c8986a;stroke-width:1.31598;stroke-dasharray:none"
       id="path3-9"
       cx="286.12085"
       cy="167.81503"
       rx="7.5457196"
       ry="8.7065516" /><g
       id="g5"
       transform="matrix(2.1957067,0,0,2.3627053,-145.48366,-715.64337)"><path
         style="fill:#faf5f0;fill-opacity:1;stroke:#c8986a;stroke-width:0;stroke-dasharray:none"
         d="m 179.93072,377.67406 c 0,0 -1.8683,-0.0637 -3.35446,-0.57323 -1.48615,-0.50954 -2.22923,0.38215 -0.70061,1.8683 1.52861,1.48616 2.59015,2.90862 4.14,2.88739 1.54984,-0.0212 3.48184,-2.46277 3.48184,-2.46277 0,0 2.73864,-3.19149 -0.62984,-2.29487 -1.75638,0.46751 -2.91796,0.59263 -2.93693,0.57518 z"
         id="path4"
         sodipodi:nodetypes="cssscsc" /><path
         style="fill:#faf5f0;fill-opacity:1;stroke:#c8986a;stroke-width:0;stroke-dasharray:none"
         d="m 179.82632,380.63184 c 0.0693,-2.38348 -0.98885,-0.14176 -0.98885,-0.14176 l 2.68299,0.0373 1.40511,0.92001 c 0,0 1.96261,1.65347 1.16608,2.47099 -1.16854,1.19932 -2.13818,-2.23972 -4.22324,-1.98291 z"
         id="path5"
         sodipodi:nodetypes="ccccscc" /><path
         style="fill:#faf5f0;fill-opacity:1;stroke:#c8986a;stroke-width:0;stroke-dasharray:none"
         d="m 180.01173,380.63526 c -0.0642,-2.38348 0.91675,-0.14176 0.91675,-0.14176 l -2.48738,0.0373 -1.30266,0.92001 c 0,0 -1.81952,1.65347 -1.08107,2.47099 1.08334,1.19932 1.98229,-2.23972 3.91534,-1.98291 z"
         id="path5-2"
         sodipodi:nodetypes="ccccscc" /></g><text
       xml:space="preserve"
       style="font-size:32.3064px;writing-mode:lr-tb;direction:ltr;fill:#c8986c;fill-opacity:1;stroke:#c8986a;stroke-width:4.03829;stroke-linecap:round;stroke-linejoin:round;stroke-dasharray:none;paint-order:normal"
       x="105.76057"
       y="333.6416"
       id="text5"
       transform="scale(1.1193143,0.89340411)"><tspan
         sodipodi:role="line"
         id="tspan5"
         x="105.76057"
         y="333.6416"
         style="font-style:normal;font-variant:normal;font-weight:normal;font-stretch:normal;font-family:'JetBrains Mono';-inkscape-font-specification:'JetBrains Mono';stroke-width:4.03829;stroke-linecap:round;stroke-linejoin:round;stroke-dasharray:none;paint-order:normal">chubby bunny</tspan></text><text
       xml:space="preserve"
       style="font-style:normal;font-variant:normal;font-weight:normal;font-stretch:normal;font-family:'JetBrains Mono';-inkscape-font-specification:'JetBrains Mono';writing-mode:lr-tb;direction:ltr;fill:#c8986a;fill-opacity:1;stroke:#c8986a;stroke-width:1;stroke-linecap:round;stroke-linejoin:round;stroke-dasharray:none;paint-order:normal"
       x="178.15904"
       y="384.52756"
       id="text7"><tspan
         sodipodi:role="line"
         id="tspan7"
         x="178.15904"
         y="384.52756">  soft things fall.</tspan><tspan
         sodipodi:role="line"
         x="178.15904"
         y="399.52756"
         id="tspan8">good things pile up.</tspan></text></g></svg>
