<?xml version="1.0" encoding="UTF-8" standalone="no"?>
<!-- Created with Inkscape (http://www.inkscape.org/) -->

<svg
   width="512"
   height="512"
   viewBox="0 0 512 512"
   version="1.1"
   id="svg1"
   xml:space="preserve"
   inkscape:version="1.4.4 (dcaf3e7d9e, 2026-05-05)"
   sodipodi:docname="t2.svg"
   xmlns:inkscape="http://www.inkscape.org/namespaces/inkscape"
   xmlns:sodipodi="http://sodipodi.sourceforge.net/DTD/sodipodi-0.dtd"
   xmlns="http://www.w3.org/2000/svg"
   xmlns:svg="http://www.w3.org/2000/svg"><sodipodi:namedview
     id="namedview1"
     pagecolor="#505050"
     bordercolor="#eeeeee"
     borderopacity="1"
     inkscape:showpageshadow="0"
     inkscape:pageopacity="0"
     inkscape:pagecheckerboard="0"
     inkscape:deskcolor="#505050"
     inkscape:document-units="px"
     inkscape:zoom="10.793069"
     inkscape:cx="113.12816"
     inkscape:cy="94.875701"
     inkscape:window-width="3840"
     inkscape:window-height="2129"
     inkscape:window-x="0"
     inkscape:window-y="0"
     inkscape:window-maximized="1"
     inkscape:current-layer="g5"
     showguides="true"><sodipodi:guide
       position="-2.6436328,453.59697"
       orientation="0,-1"
       id="guide1"
       inkscape:locked="false" /><sodipodi:guide
       position="16.154253,331.55647"
       orientation="0,-1"
       id="guide2"
       inkscape:locked="false" /></sodipodi:namedview><defs
     id="defs1" /><g
     inkscape:groupmode="layer"
     id="layer2"
     inkscape:label="Layer 2"><g
       id="g5"><path
         style="fill:#bfbffc;fill-opacity:1;stroke:#66585d;stroke-width:3;stroke-dasharray:none;stroke-opacity:1"
         d="m 92.016327,14.474985 -20.45273,3.352907 -13.63515,7.488157 -8.82932,2.905853 -24.36445,27.382066 -18.32923,44.593662 0.55882,16.20572 8.82932,9.94695 10.84107,-1.11763 8.60579,-10.95283 6.48229,8.94108 10.05872,5.47642 4.02348,3.57643 10.61754,2.12351 5.25289,-1.34117 21.79389,1.67646 18.664503,-1.11764 6.59406,1.56469 8.49403,-2.23527 2.68233,-3.6882 11.9587,-6.48228 5.58817,-7.71169 6.37053,8.38227 10.61753,3.35291 10.84107,-10.17049 -0.11176,-21.682132 -20.34097,-42.358382 -22.12918,-25.370327 -7.26464,-1.229398 -16.20872,-8.893812 z"
         id="path4"
         sodipodi:nodetypes="ccccccccccccccccccccccccccccccc" /><g
         id="g6"><path
           style="fill:#442211;fill-opacity:1;stroke:#370505;stroke-width:0.325;stroke-dasharray:none;stroke-opacity:1"
           d="m 70.098782,63.160238 3.237718,2.25948 -0.12276,3.752246 -3.217549,1.972237 -3.350409,-2.20088 -0.02533,-3.650642 z"
           id="path2-7"
           sodipodi:nodetypes="ccccccc" /><path
           style="fill:#442211;fill-opacity:1;stroke:#370505;stroke-width:0.325;stroke-dasharray:none;stroke-opacity:1"
           d="m 90.179622,67.337706 0.04623,2.161242 1.179165,0.810467 -2.427688,1.958628 1.59535,1.260725 2.543308,-2.048679 2.219612,1.665958 1.895883,-1.080623 -2.335199,-1.868573 1.757198,-1.148161 -0.02303,-1.801039 z"
           id="path3"
           sodipodi:nodetypes="cccccccccccc" /><path
           style="fill:#442211;fill-opacity:1;stroke:#370505;stroke-width:0.325;stroke-dasharray:none;stroke-opacity:1"
           d="m 117.34993,62.617122 3.23775,2.259479 -0.12279,3.752246 -3.21755,1.972238 -3.35041,-2.20088 -0.0253,-3.650642 z"
           id="path2"
           sodipodi:nodetypes="ccccccc" /></g></g></g></svg>
