<?xml version="1.0" encoding="UTF-8" standalone="no"?>
<!-- Created with Inkscape (http://www.inkscape.org/) -->

<svg
   width="512"
   height="512"
   viewBox="0 0 512 512"
   version="1.1"
   id="svg1"
   xml:space="preserve"
   inkscape:version="1.4.4 (dcaf3e7d9e, 2026-05-05)"
   sodipodi:docname="t4.svg"
   xmlns:inkscape="http://www.inkscape.org/namespaces/inkscape"
   xmlns:sodipodi="http://sodipodi.sourceforge.net/DTD/sodipodi-0.dtd"
   xmlns="http://www.w3.org/2000/svg"
   xmlns:svg="http://www.w3.org/2000/svg"><sodipodi:namedview
     id="namedview1"
     pagecolor="#505050"
     bordercolor="#eeeeee"
     borderopacity="1"
     inkscape:showpageshadow="0"
     inkscape:pageopacity="0"
     inkscape:pagecheckerboard="0"
     inkscape:deskcolor="#505050"
     inkscape:document-units="px"
     inkscape:zoom="2.9190417"
     inkscape:cx="414.86218"
     inkscape:cy="107.91213"
     inkscape:window-width="3840"
     inkscape:window-height="2129"
     inkscape:window-x="0"
     inkscape:window-y="0"
     inkscape:window-maximized="1"
     inkscape:current-layer="layer2"
     showguides="true"><sodipodi:guide
       position="-2.6436328,453.59697"
       orientation="0,-1"
       id="guide1"
       inkscape:locked="false" /><sodipodi:guide
       position="16.154253,331.55647"
       orientation="0,-1"
       id="guide2"
       inkscape:locked="false" /></sodipodi:namedview><defs
     id="defs1" /><g
     inkscape:groupmode="layer"
     id="layer2"
     inkscape:label="Layer 2"><g
       id="g5"><path
         style="fill:#e2f5e2;fill-opacity:1;stroke:#9dc19b;stroke-width:4;stroke-opacity:1"
         d="m 97.279232,11.85035 -18.05873,0.254117 -4.01648,4.337808 -5.46243,-29.561358 -10.76419,-23.134975 -15.102,-6.426382 -11.8888,13.495402 -0.16066,24.7415711 9.96089,32.7745479 -11.24617,4.177149 -5.78374,6.587041 -3.21319,10.76419 2.57055,5.301765 -8.19364,9.47891 -2.89187,13.65607 5.46242,6.90836 -1.28527,9.31825 1.92791,8.354304 9.1576,5.9444 3.37385,8.3543 8.35429,5.1411 9.47892,0.64264 7.39034,4.01649 27.95476,3.37385 34.059818,-2.24923 9.47892,-5.94441 7.06902,0.16066 10.92485,-6.90836 3.21319,-8.3543 5.78374,-3.85582 4.49847,-8.032984 -1.44594,-7.71166 4.01649,-6.58704 0.64264,-8.67562 -2.40989,-3.85583 -0.96396,-9.15759 -7.22968,-7.872319 0.32132,-9.960892 -6.42638,-10.924849 -10.76419,-4.980446 7.71165,-20.0824439 3.53451,-20.2431041 -2.24923,-17.029912 -8.83627,-10.60353 -15.42332,4.659127 -11.88881,20.725082 -4.33781,19.9217841 -1.10923,13.2663639 z"
         id="path1"
         sodipodi:nodetypes="ccccccccccccccccccccccccccccccccccccccccccccccccc" /><g
         id="g6"><path
           style="fill:#442211;fill-opacity:1;stroke:#370505;stroke-width:0.325;stroke-dasharray:none;stroke-opacity:1"
           d="m 70.098782,63.160238 3.237718,2.25948 -0.12276,3.752246 -3.217549,1.972237 -3.350409,-2.20088 -0.02533,-3.650642 z"
           id="path2-7"
           sodipodi:nodetypes="ccccccc" /><path
           style="fill:#442211;fill-opacity:1;stroke:#370505;stroke-width:0.325;stroke-dasharray:none;stroke-opacity:1"
           d="m 90.179622,67.337706 0.04623,2.161242 1.179165,0.810467 -2.427688,1.958628 1.59535,1.260725 2.543308,-2.048679 2.219612,1.665958 1.895883,-1.080623 -2.335199,-1.868573 1.757198,-1.148161 -0.02303,-1.801039 z"
           id="path3"
           sodipodi:nodetypes="cccccccccccc" /><path
           style="fill:#442211;fill-opacity:1;stroke:#370505;stroke-width:0.325;stroke-dasharray:none;stroke-opacity:1"
           d="m 117.34993,62.617122 3.23775,2.259479 -0.12279,3.752246 -3.21755,1.972238 -3.35041,-2.20088 -0.0253,-3.650642 z"
           id="path2"
           sodipodi:nodetypes="ccccccc" /></g></g></g></svg>
