<?xml version="1.0" encoding="UTF-8" standalone="no"?>
<!-- Created with Inkscape (http://www.inkscape.org/) -->

<svg
   width="512"
   height="512"
   viewBox="0 0 512 512"
   version="1.1"
   id="svg1"
   xml:space="preserve"
   inkscape:version="1.4.4 (dcaf3e7d9e, 2026-05-05)"
   sodipodi:docname="t1.svg"
   xmlns:inkscape="http://www.inkscape.org/namespaces/inkscape"
   xmlns:sodipodi="http://sodipodi.sourceforge.net/DTD/sodipodi-0.dtd"
   xmlns="http://www.w3.org/2000/svg"
   xmlns:svg="http://www.w3.org/2000/svg"><sodipodi:namedview
     id="namedview1"
     pagecolor="#505050"
     bordercolor="#eeeeee"
     borderopacity="1"
     inkscape:showpageshadow="0"
     inkscape:pageopacity="0"
     inkscape:pagecheckerboard="0"
     inkscape:deskcolor="#505050"
     inkscape:document-units="px"
     inkscape:zoom="7.3648999"
     inkscape:cx="77.597796"
     inkscape:cy="89.342694"
     inkscape:window-width="1907"
     inkscape:window-height="2113"
     inkscape:window-x="6"
     inkscape:window-y="6"
     inkscape:window-maximized="0"
     inkscape:current-layer="g3" /><defs
     id="defs1" /><g
     inkscape:groupmode="layer"
     id="layer2"
     inkscape:label="Layer 2"><g
       id="g3"
       transform="matrix(0.32902636,0,0,0.32037538,-11.35702,9.4181401)"><path
         style="fill:#fbc3b8;fill-opacity:1;stroke:#f1ae9a;stroke-width:4;stroke-dasharray:none;stroke-opacity:1"
         d="m 272.53611,152.9025 -32.93285,2.6884 -3.02444,-31.9247 L 226.16129,80.315821 210.36696,43.014331 189.19585,12.43383 160.96769,-3.696544 136.77213,3.0244451 119.63361,25.203709 l -7.39309,30.580501 1.68025,37.63754 9.74543,37.97359 14.78618,35.28519 8.06518,16.46642 -31.92469,25.53976 -28.564209,40.32594 -22.515313,58.13656 -6.38494,40.32593 6.38494,64.85755 15.122225,35.28519 26.883957,26.21186 30.24445,13.44198 14.11408,9.07333 22.85136,6.04889 19.15482,-4.03259 71.24249,4.70469 87.7089,-5.04074 17.47458,2.01629 19.15482,-2.01629 21.17111,-13.77803 26.88396,-13.10593 26.54791,-25.53976 14.78617,-29.2363 5.71284,-33.941 1.00815,-32.93284 -4.36864,-33.60495 -17.81062,-46.37482 -13.77803,-32.26075 -19.49087,-26.88396 -33.2689,-27.22001 18.14667,-43.01433 16.13038,-47.719019 -0.33605,-43.35038 L 417.70948,17.138522 391.16157,-2.3523462 372.3428,-0.67209892 347.47514,16.130374 330.00057,43.68643 l -14.11408,39.653836 -9.40938,42.006184 -3.3605,29.2363 z"
         id="path1" /><g
         id="g1"><path
           style="fill:#442211;fill-opacity:1;stroke:#370505;stroke-width:1.00101007;stroke-dasharray:none;stroke-opacity:1"
           d="m 200.51592,315.47553 9.84032,7.0526 -0.37317,11.71203 -9.77897,6.15602 -10.18282,-6.86969 -0.0767,-11.39489 z"
           id="path2-7"
           sodipodi:nodetypes="ccccccc" /><path
           style="fill:#442211;fill-opacity:1;stroke:#370505;stroke-width:1.00101007;stroke-dasharray:none;stroke-opacity:1"
           d="m 261.54698,328.51482 0.14054,6.74597 3.5838,2.52974 -7.37841,6.11354 4.8487,3.93515 7.72976,-6.39462 6.74598,5.20002 5.76218,-3.37299 -7.09733,-5.83245 5.34057,-3.5838 -0.0703,-5.62165 z"
           id="path3"
           sodipodi:nodetypes="cccccccccccc" /><path
           style="fill:#442211;fill-opacity:1;stroke:#370505;stroke-width:1.00101007;stroke-dasharray:none;stroke-opacity:1"
           d="m 344.12493,313.78028 9.84032,7.0526 -0.37317,11.71203 -9.77897,6.15602 -10.18282,-6.86969 -0.0767,-11.39489 z"
           id="path2"
           sodipodi:nodetypes="ccccccc" /></g></g></g></svg>
