<?xml version="1.0" encoding="UTF-8" standalone="no"?>
<!-- Created with Inkscape (http://www.inkscape.org/) -->

<svg
   width="512"
   height="512"
   viewBox="0 0 512 512"
   version="1.1"
   id="svg1"
   xml:space="preserve"
   inkscape:version="1.4.4 (dcaf3e7d9e, 2026-05-05)"
   sodipodi:docname="t3.svg"
   xmlns:inkscape="http://www.inkscape.org/namespaces/inkscape"
   xmlns:sodipodi="http://sodipodi.sourceforge.net/DTD/sodipodi-0.dtd"
   xmlns="http://www.w3.org/2000/svg"
   xmlns:svg="http://www.w3.org/2000/svg"><sodipodi:namedview
     id="namedview1"
     pagecolor="#505050"
     bordercolor="#eeeeee"
     borderopacity="1"
     inkscape:showpageshadow="0"
     inkscape:pageopacity="0"
     inkscape:pagecheckerboard="0"
     inkscape:deskcolor="#505050"
     inkscape:document-units="px"
     inkscape:zoom="3.2057243"
     inkscape:cx="112.923"
     inkscape:cy="21.523997"
     inkscape:window-width="3840"
     inkscape:window-height="2129"
     inkscape:window-x="0"
     inkscape:window-y="0"
     inkscape:window-maximized="1"
     inkscape:current-layer="svg1"
     showguides="true"><sodipodi:guide
       position="-37.410549,497.49387"
       orientation="0,-1"
       id="guide1"
       inkscape:locked="false" /><sodipodi:guide
       position="10.688728,375.33697"
       orientation="0,-1"
       id="guide2"
       inkscape:locked="false" /></sodipodi:namedview><defs
     id="defs1" /><g
     id="g2"><path
       style="fill:#fff6d6;fill-opacity:1;stroke:#d9a24e;stroke-width:4;stroke-dasharray:none;stroke-opacity:1"
       d="m 78.105979,65.000376 12.16638,-0.528973 11.372921,1.057946 10.31498,-11.76965 13.35657,-4.628515 13.22432,4.364028 18.91079,18.910787 5.55422,19.175275 -5.02525,6.47992 -5.28973,1.983646 8.19909,23.14258 -3.83506,30.81269 -10.44722,13.22432 -13.88554,6.21544 -5.02524,3.70281 -11.50517,2.38038 -6.08319,-1.85141 -22.084631,1.32243 -27.90333,-1.45467 -7.14113,1.71916 -11.24068,-2.90935 -4.62852,-3.43833 -16.13368,-10.44722 -9.52151,-17.98509 1.98365,-31.34165 15.07573,-27.638847 13.48882,-12.430867 -12.29863,-28.035573 -0.52897,-25.126223 11.90189,-13.4888125 15.73695,2.909352 14.01779,19.4397605 6.87665,35.17671 z"
       id="path1" /><g
       id="g1"><path
         style="fill:#442211;fill-opacity:1;stroke:#370505;stroke-width:0.325;stroke-dasharray:none;stroke-opacity:1"
         d="m 62.924116,109.63959 3.237718,2.25948 -0.12276,3.75225 -3.217549,1.97224 -3.350409,-2.20088 -0.02533,-3.65065 z"
         id="path2-7"
         sodipodi:nodetypes="ccccccc" /><path
         style="fill:#442211;fill-opacity:1;stroke:#370505;stroke-width:0.325;stroke-dasharray:none;stroke-opacity:1"
         d="m 83.004956,113.81706 0.04623,2.16124 1.179165,0.81047 -2.427688,1.95863 1.59535,1.26072 2.543308,-2.04868 2.219612,1.66596 1.895883,-1.08062 -2.335199,-1.86857 1.757198,-1.14817 -0.02303,-1.80103 z"
         id="path3"
         sodipodi:nodetypes="cccccccccccc" /><path
         style="fill:#442211;fill-opacity:1;stroke:#370505;stroke-width:0.325;stroke-dasharray:none;stroke-opacity:1"
         d="m 110.17526,109.09648 3.23775,2.25948 -0.12279,3.75224 -3.21755,1.97224 -3.35041,-2.20088 -0.0253,-3.65064 z"
         id="path2"
         sodipodi:nodetypes="ccccccc" /></g></g><g
     inkscape:groupmode="layer"
     id="layer2"
     inkscape:label="Layer 2" /></svg>
